<?xml version="1.0" encoding="UTF-8" standalone="no"?>
<svg
   xmlns:dc="http://purl.org/dc/elements/1.1/"
   xmlns:cc="http://creativecommons.org/ns#"
   xmlns:rdf="http://www.w3.org/1999/02/22-rdf-syntax-ns#"
   xmlns:svg="http://www.w3.org/2000/svg"
   xmlns="http://www.w3.org/2000/svg"
   xmlns:sodipodi="http://sodipodi.sourceforge.net/DTD/sodipodi-0.dtd"
   xmlns:inkscape="http://www.inkscape.org/namespaces/inkscape"
   width="184"
   height="175"
   viewBox="0 0 184 175"
   version="1.1"
   id="svg905"
   sodipodi:docname="nodata.svg"
   inkscape:version="0.92.5 (2060ec1f9f, 2020-04-08)">
  <metadata
     id="metadata911">
    <rdf:RDF>
      <cc:Work
         rdf:about="">
        <dc:format>image/svg+xml</dc:format>
        <dc:type
           rdf:resource="http://purl.org/dc/dcmitype/StillImage" />
        <dc:title></dc:title>
      </cc:Work>
    </rdf:RDF>
  </metadata>
  <defs
     id="defs909" />
  <sodipodi:namedview
     pagecolor="#ffffff"
     bordercolor="#666666"
     borderopacity="1"
     objecttolerance="10"
     gridtolerance="10"
     guidetolerance="10"
     inkscape:pageopacity="0"
     inkscape:pageshadow="2"
     inkscape:window-width="1920"
     inkscape:window-height="1016"
     id="namedview907"
     showgrid="false"
     inkscape:zoom="2"
     inkscape:cx="91.5"
     inkscape:cy="76"
     inkscape:window-x="0"
     inkscape:window-y="27"
     inkscape:window-maximized="1"
     inkscape:current-layer="g903" />
  <g
     id="g903"
     style="fill:none;fill-rule:evenodd"
     transform="translate(0,23)">
    <g
       transform="translate(24.203003,6.17)"
       id="g893"
       style="stroke:none;stroke-opacity:1">
      <ellipse
         cx="67.796997"
         cy="106.89"
         rx="67.796997"
         ry="12.668"
         id="ellipse883"
         style="fill:#e4e4ea;fill-opacity:0.80000001;stroke:none;stroke-opacity:1" />
      <path
         d="M 122.034,69.674 98.109,40.229 c -1.148,-1.386 -2.826,-2.225 -4.593,-2.225 h -51.44 c -1.766,0 -3.444,0.839 -4.592,2.225 L 13.56,69.674 V 85.057 H 122.035 V 69.674 Z"
         id="path885"
         style="fill:#aeb8c2;stroke:#808080;stroke-opacity:1"
         inkscape:connector-curvature="0" />
      <path
         d="M 101.537,86.214 80.63,61.102 C 79.629,59.895 78.123,59.235 76.582,59.235 H 31.724 c -1.54,0 -3.047,0.66 -4.048,1.867 L 6.769,86.214 v 13.792 h 94.768 z"
         transform="translate(13.56)"
         id="path887"
         inkscape:connector-curvature="0"
         style="fill:url(#linearGradient-1);stroke:none;stroke-opacity:1" />
      <path
         d="m 33.83,0 h 67.933 a 4,4 0 0 1 4,4 v 93.344 a 4,4 0 0 1 -4,4 H 33.83 a 4,4 0 0 1 -4,-4 V 4 a 4,4 0 0 1 4,-4 z"
         id="path889"
         style="fill:#f5f5f7;fill-opacity:1;stroke:#808080;stroke-opacity:1"
         inkscape:connector-curvature="0" />
      <path
         d="m 42.678,9.953 h 50.237 a 2,2 0 0 1 2,2 V 36.91 a 2,2 0 0 1 -2,2 H 42.678 a 2,2 0 0 1 -2,-2 V 11.953 a 2,2 0 0 1 2,-2 z m 0.262,39.814 h 49.713 a 2.262,2.262 0 1 1 0,4.524 H 42.94 a 2.262,2.262 0 0 1 0,-4.524 z m 0,11.763 h 49.713 a 2.2625,2.2625 0 1 1 0,4.525 H 42.94 a 2.2625,2.2625 0 0 1 0,-4.525 z m 78.873,43.502 c -0.775,3.071 -3.497,5.36 -6.735,5.36 H 20.515 c -3.238,0 -5.96,-2.29 -6.734,-5.36 a 7.309,7.309 0 0 1 -0.222,-1.79 V 69.675 h 26.318 c 2.907,0 5.25,2.448 5.25,5.42 v 0.04 c 0,2.971 2.37,5.37 5.277,5.37 h 34.785 c 2.907,0 5.277,-2.421 5.277,-5.393 V 75.1 c 0,-2.972 2.343,-5.426 5.25,-5.426 h 26.318 v 33.569 c 0,0.617 -0.077,1.216 -0.221,1.789 z"
         id="path891"
         style="fill:#dce0e6;stroke:#808080;stroke-opacity:1"
         inkscape:connector-curvature="0" />
    </g>
    <path
       d="m 148.121,25.792 -6.83,2.65 a 1,1 0 0 1 -1.317,-1.23 l 1.937,-6.207 c -2.589,-2.944 -4.109,-6.534 -4.109,-10.408 0,-9.995 10.118,-18.097 22.6,-18.097 12.479,0 22.598,8.102 22.598,18.097 0,9.995 -10.118,18.097 -22.599,18.097 -4.528,0 -8.744,-1.066 -12.28,-2.902 z"
       id="path895"
       style="fill:#dce0e6;stroke:#000000;stroke-opacity:0.50196078"
       inkscape:connector-curvature="0" />
    <g
       transform="translate(148.65,7.883)"
       id="g901"
       style="fill:#ffffff">
      <ellipse
         cx="20.653999"
         cy="3.1670001"
         rx="2.849"
         ry="2.8150001"
         id="ellipse897"
         style="stroke:#000000;stroke-opacity:0.50196078" />
      <path
         d="M 5.698,5.63 H 0 L 2.898,0.704 Z M 9.259,0.704 h 4.985 V 5.63 H 9.259 Z"
         id="path899"
         style="stroke:#000000;stroke-opacity:0.50196078"
         inkscape:connector-curvature="0" />
    </g>
    <text
       xml:space="preserve"
       style="font-style:normal;font-variant:normal;font-weight:normal;font-stretch:normal;font-size:16px;line-height:1.25;font-family:sans-serif;-inkscape-font-specification:'sans-serif, Normal';font-variant-ligatures:normal;font-variant-caps:normal;font-variant-numeric:normal;font-feature-settings:normal;text-align:start;letter-spacing:0px;word-spacing:0px;writing-mode:lr-tb;text-anchor:start;fill:#808080;fill-opacity:1;stroke:none"
       x="60.5"
       y="143"
       id="text915"><tspan
         sodipodi:role="line"
         id="tspan913"
         x="60.5"
         y="143">No data</tspan></text>
  </g>
</svg>
